#N canvas 199 163 925 782 12;
#X obj 10 81 bng 50 50 50 0 empty empty clap_with_reverb 0 -6 0 8 -262144
-1 -1;
#X obj 349 116 bng 50 50 50 0 empty empty start_seq._with_reverb 0
-6 0 8 -262144 -1 -1;
#X obj 700 213 oneclapper;
#X text 623 59 sequence;
#X obj 728 82 vsl 15 77 1000 30000 0 1 empty empty empty 0 -8 0 8 -262144
-1 -1 4600 1;
#X text 699 149 1s;
#X text 699 77 30s;
#X obj 756 44 vsl 15 80 240 400 0 1 empty empty empty 0 -8 0 8 -262144
-1 -1 0 1;
#X text 773 33 -Bored;
#X text 772 115 -Enthusiastic;
#X text 772 76 -Natural;
#X obj 718 573 s P1;
#X obj 771 574 s P2;
#X obj 818 572 s P3;
#X obj 718 554 bng 15 250 50 0 empty empty empty 0 -6 0 8 -262144 -1
-1;
#X obj 818 553 bng 15 250 50 0 empty empty empty 0 -6 0 8 -262144 -1
-1;
#X obj 771 555 bng 15 250 50 0 empty empty empty 0 -6 0 8 -262144 -1
-1;
#X obj 718 596 bng 15 250 50 0 empty empty empty 0 -6 0 8 -262144 -1
-1;
#X obj 818 595 bng 15 250 50 0 empty empty empty 0 -6 0 8 -262144 -1
-1;
#X obj 771 597 bng 15 250 50 0 empty empty empty 0 -6 0 8 -262144 -1
-1;
#X obj 718 615 s A1;
#X obj 771 616 s A2;
#X obj 818 614 s A3;
#X obj 718 638 bng 15 250 50 0 empty empty empty 0 -6 0 8 -262144 -1
-1;
#X obj 779 637 bng 15 250 50 0 empty empty empty 0 -6 0 8 -262144 -1
-1;
#X obj 718 657 s A1+;
#X obj 779 656 s A1-;
#X obj 785 175 bng 15 250 50 0 empty empty empty 0 -6 0 8 -262144 -1
-1;
#X text 785 155 Disturb;
#X obj 614 429 oneclap;
#X obj 548 482 freeverb~;
#X floatatom 199 419 5 0 1 0 - - -;
#X obj 199 439 min 1;
#X msg 199 462 roomsize \$1;
#X floatatom 96 419 5 0 0 0 - - -;
#X obj 96 439 / 100;
#X msg 96 462 damping \$1;
#X floatatom 8 419 5 0 0 0 - - -;
#X obj 8 439 / 100;
#X msg 8 462 width \$1;
#X floatatom 59 536 5 0 0 0 - - -;
#X msg 59 556 wet \$1;
#X floatatom 124 536 5 0 0 0 - - -;
#X msg 124 513 0.22;
#X obj 124 490 loadbang;
#X obj 226 622 tgl 15 0 empty empty empty 0 -6 0 8 -262144 -1 -1 1
1;
#X msg 226 641 freeze \$1;
#X obj 124 622 tgl 15 0 empty empty empty 0 -6 0 8 -262144 -1 -1 1
1;
#X msg 124 641 bypass \$1;
#X msg 55 637 print;
#X msg 124 556 dry \$1;
#X obj 124 579 r rev;
#X obj 417 200 pipe;
#X msg 349 200 \; rev 0;
#X msg 417 246 \; rev 1;
#X obj 417 223 pipe 1000;
#X obj 149 65 bng 50 50 50 0 empty empty clap_without_reverb 0 -6 0
8 -262144 -1 -1;
#X msg 10 184 \; rev 0;
#X msg 70 253 \; rev 1;
#X obj 70 230 pipe 1000;
#X msg 70 184 clear;
#X obj 70 207 t b a;
#X msg 149 154 \; rev 1;
#X obj 477 27 bng 50 50 50 0 empty empty start_seq._without_reverb
0 -6 0 8 -262144 -1 -1;
#X msg 540 77 \; rev 1;
#X text 725 527 Change mode:;
#X obj 559 565 output~;
#X text 623 76 length->;
#X text 694 37 MOOD->;
#X text 14 707 ----------------------------------------;
#X text 14 757 ----------------------------------------;
#X text 13 719 ClaPD $Revision: 1.2 $;
#X text 13 734 L. Peltola and C. Erkut;
#X text 13 748 TKK \, Acoustics LAB.;
#X connect 0 0 29 0;
#X connect 0 0 57 0;
#X connect 0 0 60 0;
#X connect 1 0 2 0;
#X connect 1 0 52 0;
#X connect 1 0 53 0;
#X connect 2 0 29 0;
#X connect 4 0 2 1;
#X connect 4 0 52 1;
#X connect 7 0 2 2;
#X connect 14 0 11 0;
#X connect 15 0 13 0;
#X connect 16 0 12 0;
#X connect 17 0 20 0;
#X connect 18 0 22 0;
#X connect 19 0 21 0;
#X connect 23 0 25 0;
#X connect 24 0 26 0;
#X connect 27 0 2 3;
#X connect 29 0 30 0;
#X connect 29 0 30 1;
#X connect 30 0 66 0;
#X connect 30 1 66 1;
#X connect 31 0 32 0;
#X connect 32 0 33 0;
#X connect 33 0 30 0;
#X connect 34 0 35 0;
#X connect 35 0 36 0;
#X connect 36 0 30 0;
#X connect 37 0 38 0;
#X connect 38 0 39 0;
#X connect 39 0 30 0;
#X connect 40 0 41 0;
#X connect 41 0 30 0;
#X connect 42 0 50 0;
#X connect 43 0 42 0;
#X connect 44 0 43 0;
#X connect 45 0 46 0;
#X connect 46 0 30 0;
#X connect 47 0 48 0;
#X connect 48 0 30 0;
#X connect 49 0 30 0;
#X connect 50 0 30 0;
#X connect 51 0 47 0;
#X connect 51 0 45 0;
#X connect 52 0 55 0;
#X connect 55 0 54 0;
#X connect 56 0 29 0;
#X connect 56 0 62 0;
#X connect 59 0 58 0;
#X connect 60 0 61 0;
#X connect 61 0 59 0;
#X connect 61 1 59 0;
#X connect 63 0 64 0;
#X connect 63 0 2 0;
