#N canvas 28 1 1102 892 12;
#X obj 9 25 bng 15 250 50 0 empty empty ON 0 -6 0 8 -262144 -1 -1;
#X obj 95 25 bng 15 250 50 0 empty empty OFF 0 -6 0 8 -262144 -1 -1
;
#X floatatom 10 285 1 0 1 2 syncronzation_ON/OFF - -;
#X obj 544 615 oneclap;
#X obj 682 818 output~;
#X obj 9 192 metro 440;
#X obj 74 234 bng 20 50 50 0 empty empty empty 0 -6 0 8 -262144 -1
-1;
#X obj 10 308 s sync;
#X obj 9 234 s ctrl;
#X obj 677 777 freeverb~;
#X floatatom 899 651 5 0 1 0 - - -;
#X obj 899 670 min 1;
#X msg 899 693 roomsize \$1;
#X floatatom 794 651 5 0 0 0 - - -;
#X obj 794 671 / 100;
#X msg 794 693 damping \$1;
#X floatatom 706 651 5 0 0 0 - - -;
#X obj 706 671 / 100;
#X msg 706 694 width \$1;
#X floatatom 935 738 5 0 0 0 - - -;
#X msg 935 757 wet \$1;
#X floatatom 1012 738 5 0 0 0 - - -;
#X msg 1012 715 0.22;
#X obj 1012 692 loadbang;
#X obj 995 828 tgl 15 0 empty empty empty 0 -6 0 8 -262144 -1 -1 0
1;
#X msg 995 844 freeze \$1;
#X obj 895 827 tgl 15 0 empty empty empty 0 -6 0 8 -262144 -1 -1 0
1;
#X msg 895 843 bypass \$1;
#X msg 826 842 print;
#X msg 1012 757 dry \$1;
#X msg 349 711 bang;
#X msg 427 731 start;
#X msg 430 758 stop;
#X obj 392 795 writesf~ 1;
#X obj 10 360 vsl 15 70 0 1 0 0 empty empty bad_syncronization 0 -8
0 10 -262144 -1 -1 0 1;
#X obj 47 399 s ord;
#X floatatom 53 512 5 0 60 2 no._of_people - -;
#X obj 11 528 s ppl;
#X obj 11 470 loadbang;
#X msg 11 491 5;
#X text 8 430 good_syncronization;
#X obj 270 58 r ppl;
#X obj 534 581 r clap;
#X obj 268 79 s clap;
#X obj 236 37 ppl 1;
#X obj 355 58 r ppl;
#X obj 353 79 s clap;
#X obj 440 58 r ppl;
#X obj 438 79 s clap;
#X obj 525 58 r ppl;
#X obj 523 79 s clap;
#X obj 610 58 r ppl;
#X obj 608 79 s clap;
#X obj 696 58 r ppl;
#X obj 694 79 s clap;
#X obj 781 58 r ppl;
#X obj 779 79 s clap;
#X obj 866 58 r ppl;
#X obj 864 79 s clap;
#X obj 951 58 r ppl;
#X obj 949 79 s clap;
#X obj 1036 58 r ppl;
#X obj 1034 79 s clap;
#X obj 321 37 ppl 2;
#X obj 406 37 ppl 3;
#X obj 491 37 ppl 4;
#X obj 576 37 ppl 5;
#X obj 662 37 ppl 6;
#X obj 747 37 ppl 7;
#X obj 832 37 ppl 8;
#X obj 918 41 ppl 9;
#X obj 1002 37 ppl 10;
#X obj 219 151 r ppl;
#X obj 217 172 s clap;
#X obj 304 151 r ppl;
#X obj 302 172 s clap;
#X obj 389 151 r ppl;
#X obj 387 172 s clap;
#X obj 474 151 r ppl;
#X obj 472 172 s clap;
#X obj 559 151 r ppl;
#X obj 557 172 s clap;
#X obj 644 151 r ppl;
#X obj 642 172 s clap;
#X obj 729 151 r ppl;
#X obj 727 172 s clap;
#X obj 814 151 r ppl;
#X obj 812 172 s clap;
#X obj 899 151 r ppl;
#X obj 897 172 s clap;
#X obj 984 151 r ppl;
#X obj 982 172 s clap;
#X obj 270 244 r ppl;
#X obj 268 265 s clap;
#X obj 355 244 r ppl;
#X obj 353 265 s clap;
#X obj 440 244 r ppl;
#X obj 438 265 s clap;
#X obj 525 244 r ppl;
#X obj 523 265 s clap;
#X obj 610 244 r ppl;
#X obj 608 265 s clap;
#X obj 695 244 r ppl;
#X obj 693 265 s clap;
#X obj 780 244 r ppl;
#X obj 778 265 s clap;
#X obj 865 244 r ppl;
#X obj 863 265 s clap;
#X obj 950 244 r ppl;
#X obj 948 265 s clap;
#X obj 1035 244 r ppl;
#X obj 1033 265 s clap;
#X obj 219 337 r ppl;
#X obj 182 358 s clap;
#X obj 304 337 r ppl;
#X obj 267 358 s clap;
#X obj 389 337 r ppl;
#X obj 349 357 s clap;
#X obj 474 337 r ppl;
#X obj 437 358 s clap;
#X obj 559 337 r ppl;
#X obj 522 358 s clap;
#X obj 644 337 r ppl;
#X obj 607 358 s clap;
#X obj 729 337 r ppl;
#X obj 692 358 s clap;
#X obj 814 337 r ppl;
#X obj 777 358 s clap;
#X obj 899 337 r ppl;
#X obj 862 358 s clap;
#X obj 984 337 r ppl;
#X obj 947 358 s clap;
#X obj 270 431 r ppl;
#X obj 235 452 s clap;
#X obj 355 431 r ppl;
#X obj 320 452 s clap;
#X obj 440 431 r ppl;
#X obj 405 452 s clap;
#X obj 525 431 r ppl;
#X obj 490 452 s clap;
#X obj 609 432 r ppl;
#X obj 575 452 s clap;
#X obj 695 431 r ppl;
#X obj 660 452 s clap;
#X obj 780 431 r ppl;
#X obj 745 452 s clap;
#X obj 865 431 r ppl;
#X obj 830 452 s clap;
#X obj 950 431 r ppl;
#X obj 915 452 s clap;
#X obj 1035 431 r ppl;
#X obj 1000 452 s clap;
#X obj 219 524 r ppl;
#X obj 191 545 s clap;
#X obj 304 524 r ppl;
#X obj 276 545 s clap;
#X obj 389 524 r ppl;
#X obj 361 545 s clap;
#X obj 474 524 r ppl;
#X obj 446 545 s clap;
#X obj 559 524 r ppl;
#X obj 531 545 s clap;
#X obj 644 524 r ppl;
#X obj 616 545 s clap;
#X obj 729 524 r ppl;
#X obj 701 545 s clap;
#X obj 814 524 r ppl;
#X obj 786 545 s clap;
#X obj 899 524 r ppl;
#X obj 871 545 s clap;
#X obj 984 524 r ppl;
#X obj 956 545 s clap;
#X obj 185 131 ppl 11;
#X obj 270 130 ppl 12;
#X obj 355 130 ppl 13;
#X obj 440 130 ppl 14;
#X obj 524 130 ppl 15;
#X obj 610 130 ppl 16;
#X obj 695 130 ppl 17;
#X obj 780 130 ppl 18;
#X obj 865 130 ppl 19;
#X obj 950 130 ppl 20;
#X obj 1001 223 ppl 30;
#X obj 915 223 ppl 29;
#X obj 831 223 ppl 28;
#X obj 746 223 ppl 27;
#X obj 661 223 ppl 26;
#X obj 576 223 ppl 25;
#X obj 491 223 ppl 24;
#X obj 406 223 ppl 23;
#X obj 321 223 ppl 22;
#X obj 236 223 ppl 21;
#X obj 185 316 ppl 31;
#X obj 270 316 ppl 32;
#X obj 355 316 ppl 33;
#X obj 440 316 ppl 34;
#X obj 525 316 ppl 35;
#X obj 610 316 ppl 36;
#X obj 695 316 ppl 37;
#X obj 780 316 ppl 38;
#X obj 866 316 ppl 39;
#X obj 950 316 ppl 40;
#X obj 236 410 ppl 41;
#X obj 321 410 ppl 42;
#X obj 406 410 ppl 43;
#X obj 491 410 ppl 44;
#X obj 576 411 ppl 45;
#X obj 661 410 ppl 46;
#X obj 746 410 ppl 47;
#X obj 831 410 ppl 48;
#X obj 916 410 ppl 49;
#X obj 1001 410 ppl 50;
#X obj 185 503 ppl 51;
#X obj 270 503 ppl 52;
#X obj 355 503 ppl 53;
#X obj 440 503 ppl 54;
#X obj 525 503 ppl 55;
#X obj 610 503 ppl 56;
#X obj 695 503 ppl 57;
#X obj 780 503 ppl 58;
#X obj 865 503 ppl 59;
#X obj 950 503 ppl 60;
#X obj 895 788 r rev;
#X msg 9 39 1 \; sc 1000 \; ba bang \; onoff 1 \; rev 0;
#X msg 95 39 0 \; sc 3500 \; ba bang \; onoff 0;
#X msg 80 146 \; rev 1;
#X obj 80 124 pipe 4000;
#X obj 270 482 clapper;
#X text 350 662 Write to file;
#X obj 185 482 clapper;
#X obj 236 16 clapper;
#X obj 321 16 clapper;
#X obj 406 16 clapper;
#X obj 491 16 clapper;
#X obj 576 16 clapper;
#X obj 662 16 clapper;
#X obj 747 16 clapper;
#X obj 832 16 clapper;
#X obj 917 16 clapper;
#X obj 1002 16 clapper;
#X obj 185 109 clapper;
#X obj 270 109 clapper;
#X obj 355 109 clapper;
#X obj 440 109 clapper;
#X obj 525 109 clapper;
#X obj 610 109 clapper;
#X obj 695 109 clapper;
#X obj 780 109 clapper;
#X obj 865 109 clapper;
#X obj 950 109 clapper;
#X obj 236 202 clapper;
#X obj 321 202 clapper;
#X obj 406 202 clapper;
#X obj 491 202 clapper;
#X obj 576 202 clapper;
#X obj 661 202 clapper;
#X obj 746 202 clapper;
#X obj 831 202 clapper;
#X obj 916 202 clapper;
#X obj 1001 202 clapper;
#X obj 185 295 clapper;
#X obj 270 295 clapper;
#X obj 355 295 clapper;
#X obj 440 295 clapper;
#X obj 525 295 clapper;
#X obj 610 295 clapper;
#X obj 695 295 clapper;
#X obj 780 295 clapper;
#X obj 865 295 clapper;
#X obj 950 295 clapper;
#X obj 236 389 clapper;
#X obj 321 389 clapper;
#X obj 406 389 clapper;
#X obj 491 385 clapper;
#X obj 576 390 clapper;
#X obj 661 389 clapper;
#X obj 746 389 clapper;
#X obj 831 389 clapper;
#X obj 916 389 clapper;
#X obj 1001 389 clapper;
#X obj 355 482 clapper;
#X obj 440 482 clapper;
#X obj 525 482 clapper;
#X obj 610 482 clapper;
#X obj 695 482 clapper;
#X obj 780 482 clapper;
#X obj 865 482 clapper;
#X obj 950 482 clapper;
#X text 705 630 Reverberation;
#X obj 349 738 del 10000;
#X obj 263 738 del 8000;
#X obj 262 788 bng 15 250 50 0 empty empty empty 0 -6 0 8 -262144 -1
-1;
#X msg 392 680 open test1.wav;
#X text 14 823 ----------------------------------------;
#X text 14 873 ----------------------------------------;
#X text 13 835 ClaPD $Revision: 1.2 $;
#X text 13 850 L. Peltola and C. Erkut;
#X text 13 864 TKK \, Acoustics LAB.;
#X connect 0 0 223 0;
#X connect 1 0 224 0;
#X connect 2 0 7 0;
#X connect 3 0 9 1;
#X connect 3 0 9 0;
#X connect 5 0 6 0;
#X connect 5 0 8 0;
#X connect 9 0 33 0;
#X connect 9 0 4 0;
#X connect 9 1 4 1;
#X connect 10 0 11 0;
#X connect 11 0 12 0;
#X connect 12 0 9 0;
#X connect 13 0 14 0;
#X connect 14 0 15 0;
#X connect 15 0 9 0;
#X connect 16 0 17 0;
#X connect 17 0 18 0;
#X connect 18 0 9 0;
#X connect 19 0 20 0;
#X connect 20 0 9 0;
#X connect 21 0 29 0;
#X connect 22 0 21 0;
#X connect 23 0 22 0;
#X connect 24 0 25 0;
#X connect 25 0 9 0;
#X connect 26 0 27 0;
#X connect 27 0 9 0;
#X connect 28 0 9 0;
#X connect 29 0 9 0;
#X connect 30 0 31 0;
#X connect 30 0 289 0;
#X connect 30 0 290 0;
#X connect 31 0 33 0;
#X connect 32 0 33 0;
#X connect 34 0 35 0;
#X connect 36 0 37 0;
#X connect 38 0 39 0;
#X connect 39 0 36 0;
#X connect 41 0 44 1;
#X connect 42 0 3 0;
#X connect 44 0 43 0;
#X connect 45 0 63 1;
#X connect 47 0 64 1;
#X connect 49 0 65 1;
#X connect 51 0 66 1;
#X connect 53 0 67 1;
#X connect 55 0 68 1;
#X connect 57 0 69 1;
#X connect 59 0 70 1;
#X connect 61 0 71 1;
#X connect 63 0 46 0;
#X connect 64 0 48 0;
#X connect 65 0 50 0;
#X connect 66 0 52 0;
#X connect 67 0 54 0;
#X connect 68 0 56 0;
#X connect 69 0 58 0;
#X connect 70 0 60 0;
#X connect 71 0 62 0;
#X connect 72 0 172 1;
#X connect 74 0 173 1;
#X connect 76 0 174 1;
#X connect 78 0 175 1;
#X connect 80 0 176 1;
#X connect 82 0 177 1;
#X connect 84 0 178 1;
#X connect 86 0 179 1;
#X connect 88 0 180 1;
#X connect 90 0 181 1;
#X connect 92 0 191 1;
#X connect 94 0 190 1;
#X connect 96 0 189 1;
#X connect 98 0 188 1;
#X connect 100 0 187 1;
#X connect 102 0 186 1;
#X connect 104 0 185 1;
#X connect 106 0 184 1;
#X connect 108 0 183 1;
#X connect 110 0 182 1;
#X connect 112 0 192 1;
#X connect 114 0 193 1;
#X connect 116 0 194 1;
#X connect 118 0 195 1;
#X connect 120 0 196 1;
#X connect 122 0 197 1;
#X connect 124 0 198 1;
#X connect 126 0 199 1;
#X connect 128 0 200 1;
#X connect 130 0 201 1;
#X connect 132 0 202 1;
#X connect 134 0 203 1;
#X connect 136 0 204 1;
#X connect 138 0 205 1;
#X connect 140 0 206 1;
#X connect 142 0 207 1;
#X connect 144 0 208 1;
#X connect 146 0 209 1;
#X connect 148 0 210 1;
#X connect 150 0 211 1;
#X connect 152 0 212 1;
#X connect 154 0 213 1;
#X connect 156 0 214 1;
#X connect 158 0 215 1;
#X connect 160 0 216 1;
#X connect 162 0 217 1;
#X connect 164 0 218 1;
#X connect 166 0 219 1;
#X connect 168 0 220 1;
#X connect 170 0 221 1;
#X connect 172 0 73 0;
#X connect 173 0 75 0;
#X connect 174 0 77 0;
#X connect 175 0 79 0;
#X connect 176 0 81 0;
#X connect 177 0 83 0;
#X connect 178 0 85 0;
#X connect 179 0 87 0;
#X connect 180 0 89 0;
#X connect 181 0 91 0;
#X connect 182 0 111 0;
#X connect 183 0 109 0;
#X connect 184 0 107 0;
#X connect 185 0 105 0;
#X connect 186 0 103 0;
#X connect 187 0 101 0;
#X connect 188 0 99 0;
#X connect 189 0 97 0;
#X connect 190 0 95 0;
#X connect 191 0 93 0;
#X connect 192 0 113 0;
#X connect 193 0 115 0;
#X connect 194 0 117 0;
#X connect 195 0 119 0;
#X connect 196 0 121 0;
#X connect 197 0 123 0;
#X connect 198 0 125 0;
#X connect 199 0 127 0;
#X connect 200 0 129 0;
#X connect 201 0 131 0;
#X connect 202 0 133 0;
#X connect 203 0 135 0;
#X connect 204 0 137 0;
#X connect 205 0 139 0;
#X connect 206 0 141 0;
#X connect 207 0 143 0;
#X connect 208 0 145 0;
#X connect 209 0 147 0;
#X connect 210 0 149 0;
#X connect 211 0 151 0;
#X connect 212 0 153 0;
#X connect 213 0 155 0;
#X connect 214 0 157 0;
#X connect 215 0 159 0;
#X connect 216 0 161 0;
#X connect 217 0 163 0;
#X connect 218 0 165 0;
#X connect 219 0 167 0;
#X connect 220 0 169 0;
#X connect 221 0 171 0;
#X connect 222 0 26 0;
#X connect 222 0 24 0;
#X connect 223 0 5 0;
#X connect 224 0 5 0;
#X connect 224 0 226 0;
#X connect 226 0 225 0;
#X connect 227 0 213 0;
#X connect 229 0 212 0;
#X connect 230 0 44 0;
#X connect 231 0 63 0;
#X connect 232 0 64 0;
#X connect 233 0 65 0;
#X connect 234 0 66 0;
#X connect 235 0 67 0;
#X connect 236 0 68 0;
#X connect 237 0 69 0;
#X connect 238 0 70 0;
#X connect 239 0 71 0;
#X connect 240 0 172 0;
#X connect 241 0 173 0;
#X connect 242 0 174 0;
#X connect 243 0 175 0;
#X connect 244 0 176 0;
#X connect 245 0 177 0;
#X connect 246 0 178 0;
#X connect 247 0 179 0;
#X connect 248 0 180 0;
#X connect 249 0 181 0;
#X connect 250 0 191 0;
#X connect 251 0 190 0;
#X connect 252 0 189 0;
#X connect 253 0 188 0;
#X connect 254 0 187 0;
#X connect 255 0 186 0;
#X connect 256 0 185 0;
#X connect 257 0 184 0;
#X connect 258 0 183 0;
#X connect 259 0 182 0;
#X connect 260 0 192 0;
#X connect 261 0 193 0;
#X connect 262 0 194 0;
#X connect 263 0 195 0;
#X connect 264 0 196 0;
#X connect 265 0 197 0;
#X connect 266 0 198 0;
#X connect 267 0 199 0;
#X connect 268 0 200 0;
#X connect 269 0 201 0;
#X connect 270 0 202 0;
#X connect 271 0 203 0;
#X connect 272 0 204 0;
#X connect 273 0 205 0;
#X connect 274 0 206 0;
#X connect 275 0 207 0;
#X connect 276 0 208 0;
#X connect 277 0 209 0;
#X connect 278 0 210 0;
#X connect 279 0 211 0;
#X connect 280 0 214 0;
#X connect 281 0 215 0;
#X connect 282 0 216 0;
#X connect 283 0 217 0;
#X connect 284 0 218 0;
#X connect 285 0 219 0;
#X connect 286 0 220 0;
#X connect 287 0 221 0;
#X connect 289 0 32 0;
#X connect 290 0 291 0;
#X connect 292 0 33 0;
