#N canvas 317 303 399 389 12;
#X obj 36 37 r onoff;
#X obj 98 49 r ba;
#X obj 98 96 random;
#X obj 141 56 r sc;
#X obj 36 125 pipe;
#X obj 190 166 cosc;
#X obj 190 202 outlet;
#X obj 199 42 r sync;
#X obj 217 92 r ord;
#X obj 273 93 r ctrl;
#X obj 273 167 timer;
#X text 6 241 --------------------------------;
#X text 6 254 ClaPD $Revision: 1.2 $;
#X text 6 268 Leevi Peltola and Cumhur Erkut;
#X text 6 282 TKK \, Acoustics LAB.;
#X text 6 291 --------------------------------;
#X connect 0 0 4 0;
#X connect 1 0 2 0;
#X connect 2 0 4 1;
#X connect 3 0 2 1;
#X connect 4 0 5 0;
#X connect 5 0 6 0;
#X connect 5 0 10 1;
#X connect 7 0 5 1;
#X connect 8 0 5 3;
#X connect 9 0 10 0;
#X connect 10 0 5 2;
