#N canvas 646 326 742 489 12;
#X obj 353 45 inlet;
#X text 353 24 Mean;
#X obj 670 45 inlet;
#X text 670 24 Dev;
#X obj 648 274 / 2;
#X obj 558 311 random;
#X obj 577 287 random;
#X obj 441 379 +;
#X obj 558 360 -;
#X obj 558 334 +;
#X obj 441 450 outlet;
#X obj 242 45 inlet;
#X text 242 24 Length;
#X obj 36 195 / 4;
#X obj 36 241 delay;
#X msg 36 283 1;
#X msg 70 195 2;
#X obj 648 231 *;
#X floatatom 648 254 5 0 0 0 - - -;
#X obj 205 252 delay;
#X obj 205 229 * 0.7;
#X msg 265 246 0;
#X obj 15 45 inlet;
#X text 15 24 Bang clap;
#X floatatom 316 160 5 0 0 0 - - -;
#X obj 316 234 +;
#X floatatom 316 282 5 0 0 0 - - -;
#X floatatom 441 430 5 0 0 0 - - -;
#X obj 36 264 bng 15 250 50 0 empty empty empty 0 -6 0 8 -262144 -1
-1;
#X obj 36 218 max 2000;
#X obj 127 45 inlet;
#X text 127 24 Bang seq;
#X obj 225 355 float;
#X obj 287 354 +;
#X msg 205 294 0.02;
#X obj 347 204 *;
#X obj 265 328 float;
#X floatatom 380 283 5 0 0 0 - - -;
#X obj 205 275 bng 15 250 50 0 empty empty empty 0 -6 0 8 -262144 -1
-1;
#X floatatom 670 110 5 0 0 0 - - -;
#X obj 500 49 inlet;
#X text 500 28 Bang disturb;
#X msg 502 112 1;
#X obj 502 89 delay 1000;
#X msg 539 113 5;
#X text 12 418 --------------------------------;
#X text 12 431 ClaPD $Revision: 1.2 $;
#X text 12 445 Leevi Peltola and Cumhur Erkut;
#X text 12 459 TKK \, Acoustics LAB.;
#X text 12 468 --------------------------------;
#X connect 0 0 24 0;
#X connect 2 0 39 0;
#X connect 4 0 6 1;
#X connect 4 0 5 1;
#X connect 4 0 8 1;
#X connect 5 0 9 0;
#X connect 6 0 9 1;
#X connect 7 0 27 0;
#X connect 8 0 7 1;
#X connect 9 0 8 0;
#X connect 11 0 13 0;
#X connect 11 0 20 0;
#X connect 11 0 16 0;
#X connect 11 0 21 0;
#X connect 13 0 29 0;
#X connect 14 0 28 0;
#X connect 15 0 17 0;
#X connect 16 0 17 0;
#X connect 17 0 18 0;
#X connect 18 0 4 0;
#X connect 19 0 38 0;
#X connect 20 0 19 1;
#X connect 21 0 36 0;
#X connect 21 0 32 0;
#X connect 22 0 6 0;
#X connect 22 0 5 0;
#X connect 22 0 17 0;
#X connect 22 0 25 0;
#X connect 22 0 32 0;
#X connect 24 0 25 0;
#X connect 24 0 35 1;
#X connect 25 0 26 0;
#X connect 26 0 7 0;
#X connect 27 0 10 0;
#X connect 28 0 15 0;
#X connect 29 0 14 1;
#X connect 30 0 14 0;
#X connect 30 0 19 0;
#X connect 32 0 33 0;
#X connect 33 0 32 1;
#X connect 33 0 37 0;
#X connect 34 0 36 0;
#X connect 35 0 25 1;
#X connect 36 0 33 1;
#X connect 37 0 35 0;
#X connect 38 0 34 0;
#X connect 39 0 17 1;
#X connect 40 0 44 0;
#X connect 40 0 43 0;
#X connect 42 0 17 0;
#X connect 43 0 42 0;
#X connect 44 0 17 0;
