#N canvas 94 22 1186 818 12;
#X msg 7 602 \; fs set 1364 \; d_fs set 333 \; B set 188 \; d_B set
54 \; g set 27.22 \; d_g set 9.76 \;;
#X msg 138 602 \; fs set 774 \; d_fs set 448 \; B set 139 \; d_B set
7 \; g set 13.83 \; d_g set 3.5 \;;
#X msg 271 602 \; fs set 1562 \; d_fs set 257 \; B set 375 \; d_B set
94 \; g set 19.52 \; d_g set 6.31 \;;
#X msg 402 602 \; fs set 775 \; d_fs set 39 \; B set 137 \; d_B set
15 \; g set 22.19 \; d_g set 3.55 \;;
#X msg 530 602 \; fs set 1355 \; d_fs set 57 \; B set 222 \; d_B set
53 \; g set 24 \; d_g set 8.03 \;;
#X msg 661 602 \; fs set 1452 \; d_fs set 12 \; B set 183 \; d_B set
40 \; g set 13.82 \; d_g set 4.45 \;;
#X msg 792 602 \; fs set 500 \; d_fs set 178 \; B set 91 \; d_B set
27 \; g set 33.78 \; d_g set 5.57 \;;
#X msg 923 602 \; fs set 984 \; d_fs set 396 \; B set 137 \; d_B set
36 \; g set 11.33 \; d_g set 1.42 \;;
#X obj 7 563 r P1;
#X obj 138 563 r P2;
#X obj 271 563 r P3;
#X obj 402 563 r A1;
#X obj 530 563 r A2;
#X obj 661 559 r A3;
#X obj 792 559 r A1+;
#X obj 923 563 r A1-;
#X obj 313 563 loadbang;
#X text 8 742 ----------------------------------------;
#X text 8 792 ----------------------------------------;
#X text 7 754 ClaPD $Revision: 1.2 $;
#X text 7 769 L. Peltola and C. Erkut;
#X text 7 783 TKK \, Acoustics LAB.;
#X obj 341 21 bng 15 250 50 0 empty empty empty 0 -6 0 8 -262144 -1
-1;
#X obj 450 483 reson~;
#X obj 86 391 noise~;
#X floatatom 341 331 6 0 0 0 - - -;
#X floatatom 497 381 5 0 0 0 - - -;
#X floatatom 617 381 5 0 0 0 - - -;
#X obj 341 253 +;
#X obj 617 293 +;
#X obj 497 259 +;
#X obj 675 246 / 100;
#X text 347 305 frequency;
#X text 347 277 randomized;
#X text 349 290 center;
#X text 502 345 randomized;
#X text 503 359 bandwidth;
#X text 624 358 gain;
#X text 623 345 randomized;
#X text 224 476 pulse;
#X text 223 496 generator;
#X obj 502 5 r fs;
#X obj 570 5 r g;
#X obj 540 5 r B;
#X obj 656 5 r d_fs;
#X obj 718 5 r d_B;
#X obj 771 5 r d_g;
#X obj 391 178 random;
#X obj 535 178 random;
#X obj 675 184 random;
#X obj 535 240 -;
#X obj 675 274 -;
#X obj 391 240 -;
#X msg 341 184 1562;
#X msg 497 178 375;
#X msg 617 178 19.52;
#X msg 656 36 257;
#X msg 718 36 94;
#X msg 771 36 6.31;
#X obj 556 92 / 2;
#X obj 646 92 / 2;
#X obj 771 175 / 2;
#X text 365 16 Clap here!!!;
#X text 224 457 Noise;
#X floatatom 328 418 1 0 1 0 - - -;
#X obj 410 154 random;
#X obj 391 209 +;
#X obj 545 154 random;
#X obj 535 209 +;
#X obj 706 88 * 50;
#X obj 694 154 random;
#X obj 675 215 +;
#X obj 66 2 inlet;
#X obj 450 533 outlet~;
#X obj 86 422 twopz~ 0.2 0.22 1 0 -1;
#X obj 389 442 spigot;
#X floatatom 426 399 5 0 0 0 - - -;
#X obj 513 442 spigot;
#X obj 452 442 spigot;
#X obj 277 454 noiseq~;
#X obj 450 508 *~ 3;
#X floatatom 205 365 5 0 0 0 - - -;
#X obj 363 384 +;
#X floatatom 716 444 5 0 0 0 - - -;
#X obj 205 54 inlet;
#N canvas 233 34 645 429 freq_slider 1;
#X obj 110 133 bng 15 250 50 0 empty empty empty 17 7 0 10 -262144
-1 -1;
#X floatatom 109 286 5 0 0 0 - - -;
#X obj 253 124 sel 1;
#X text 39 21 counts from lower bound to higher bound wraps at higher
bound;
#X obj 74 64 inlet;
#X obj 56 379 outlet;
#X obj 109 205 int -540;
#X msg 207 158 -540;
#X obj 192 205 + 80;
#X obj 110 160 metro 260;
#X obj 109 240 expr $f1 \; if ($f1 > 750 \, 1 \, 0) \;;
#X obj 110 96 sel 1;
#X text 292 245 if exceeds higher bound \, start counting from lower
bound again;
#X floatatom 56 348 5 0 0 0 - - -;
#X obj 56 316 *;
#X connect 0 0 9 0;
#X connect 1 0 14 0;
#X connect 2 0 7 0;
#X connect 4 0 11 0;
#X connect 4 0 14 1;
#X connect 6 0 8 0;
#X connect 6 0 10 0;
#X connect 7 0 6 1;
#X connect 8 0 6 1;
#X connect 9 0 6 0;
#X connect 10 0 1 0;
#X connect 10 1 2 0;
#X connect 11 0 0 0;
#X connect 13 0 5 0;
#X connect 14 0 13 0;
#X restore 205 132 pd freq_slider;
#X connect 8 0 0 0;
#X connect 9 0 1 0;
#X connect 10 0 2 0;
#X connect 11 0 3 0;
#X connect 12 0 4 0;
#X connect 13 0 5 0;
#X connect 14 0 6 0;
#X connect 15 0 7 0;
#X connect 16 0 2 0;
#X connect 22 0 47 0;
#X connect 22 0 48 0;
#X connect 22 0 49 0;
#X connect 22 0 53 0;
#X connect 22 0 54 0;
#X connect 22 0 55 0;
#X connect 22 0 56 0;
#X connect 22 0 57 0;
#X connect 22 0 58 0;
#X connect 22 0 65 0;
#X connect 22 0 67 0;
#X connect 22 0 70 0;
#X connect 22 0 79 0;
#X connect 23 0 80 0;
#X connect 24 0 74 0;
#X connect 25 0 82 0;
#X connect 26 0 78 0;
#X connect 27 0 77 0;
#X connect 28 0 25 0;
#X connect 29 0 27 0;
#X connect 30 0 26 0;
#X connect 31 0 51 0;
#X connect 41 0 53 0;
#X connect 42 0 55 0;
#X connect 43 0 54 0;
#X connect 44 0 56 0;
#X connect 45 0 57 0;
#X connect 46 0 58 0;
#X connect 47 0 66 0;
#X connect 48 0 68 0;
#X connect 49 0 71 0;
#X connect 50 0 30 1;
#X connect 51 0 29 1;
#X connect 52 0 28 1;
#X connect 53 0 28 0;
#X connect 54 0 30 0;
#X connect 55 0 29 0;
#X connect 56 0 59 0;
#X connect 57 0 60 0;
#X connect 58 0 61 0;
#X connect 58 0 69 0;
#X connect 59 0 52 1;
#X connect 59 0 65 1;
#X connect 59 0 47 1;
#X connect 60 0 50 1;
#X connect 60 0 48 1;
#X connect 60 0 67 1;
#X connect 61 0 51 1;
#X connect 64 0 79 1;
#X connect 65 0 66 1;
#X connect 66 0 52 0;
#X connect 67 0 68 1;
#X connect 68 0 50 0;
#X connect 69 0 49 1;
#X connect 69 0 70 1;
#X connect 70 0 71 1;
#X connect 71 0 31 0;
#X connect 72 0 22 0;
#X connect 74 0 79 0;
#X connect 75 0 23 1;
#X connect 76 0 75 1;
#X connect 76 0 78 1;
#X connect 76 0 77 1;
#X connect 77 0 23 3;
#X connect 78 0 23 2;
#X connect 79 0 23 0;
#X connect 79 1 76 0;
#X connect 80 0 73 0;
#X connect 81 0 82 1;
#X connect 82 0 75 0;
#X connect 82 0 83 0;
#X connect 84 0 85 0;
#X connect 85 0 81 0;
