#N canvas 218 34 615 578 12;
#X obj 353 490 t b;
#X obj 353 437 f;
#X obj 353 515 f;
#X msg 467 514 0;
#X obj 353 467 moses 1;
#X obj 467 486 t b f;
#X obj 433 447 moses 1;
#X obj 29 97 dbtorms;
#X obj 85 170 inlet~;
#X msg 299 310 \; pd dsp 1;
#X obj 29 170 line~;
#X obj 64 242 *~;
#X obj 29 127 pack 0 50;
#X text 121 146 audio in;
#X text 138 464 test if less than 1 -->;
#X text 104 491 if true convert to bang -->;
#X text 100 96 <-- convert from dB to linear units;
#X obj 453 395 bng 15 250 50 0 empty empty mute -45 7 0 12 -262144
-1 -1;
#X text 118 126 <-- make a ramp to avoid clicks or zipper noise;
#X obj 148 170 inlet~;
#X obj 154 241 *~;
#X text 373 378 MUTE logic:;
#X obj 323 174 r \$0-master-lvl;
#X obj 353 541 s \$0-master-lvl;
#X obj 323 279 s \$0-master-out;
#X obj 29 71 r \$0-master-out;
#X obj 433 418 r \$0-master-out;
#X text 60 10 Level control abstraction \, used in many of the Pd example
patches. The "level" and "mute" controls show up on the parent \, calling
patch.;
#X text 66 517 previous nonzero master-lvl -->;
#X text 138 421 recall previous;
#X text 138 439 value of master-lvl -->;
#X text 39 319 automatically start DSP -->;
#X obj 85 192 hip~ 3;
#X obj 147 192 hip~ 3;
#X obj 451 174 r ClapsOnOff;
#X floatatom 455 213 5 0 0 0 - - -;
#X obj 64 282 s~ clappers;
#X msg 299 241 100;
#X obj 299 213 loadbang;
#X connect 0 0 2 0;
#X connect 1 0 4 0;
#X connect 2 0 23 0;
#X connect 3 0 23 0;
#X connect 4 0 0 0;
#X connect 4 1 5 0;
#X connect 5 0 3 0;
#X connect 6 1 2 1;
#X connect 7 0 12 0;
#X connect 8 0 32 0;
#X connect 10 0 20 0;
#X connect 10 0 11 0;
#X connect 11 0 36 0;
#X connect 12 0 10 0;
#X connect 17 0 1 0;
#X connect 19 0 33 0;
#X connect 20 0 36 0;
#X connect 25 0 7 0;
#X connect 26 0 1 1;
#X connect 26 0 6 0;
#X connect 32 0 11 1;
#X connect 33 0 20 1;
#X connect 34 0 35 0;
#X connect 37 0 24 0;
#X connect 37 0 9 0;
#X connect 38 0 37 0;
#X coords 0 0 1 1 65 55 1 0 0;
