#N canvas 512 52 453 392 12;
#X obj 66 31 inlet;
#X obj 262 31 inlet;
#X text 262 11 Dev;
#X obj 262 71 / 2;
#X obj 134 132 random;
#X obj 213 132 random;
#X obj 66 150 +;
#X obj 134 192 -;
#X obj 134 170 +;
#X obj 66 240 outlet;
#X obj 14 31 inlet;
#X text 68 11 Mean;
#X text 14 11 Bang;
#X text 121 11 comment;
#X text 197 169 Samples Triang(Mean \, Dev);
#X text 7 280 ----------------------------------------;
#X text 7 330 ----------------------------------------;
#X text 6 292 ClaPD $Revision: 1.2 $;
#X text 6 307 L. Peltola and C. Erkut;
#X text 6 321 TKK \, Acoustics LAB.;
#X connect 0 0 6 0;
#X connect 1 0 3 0;
#X connect 3 0 7 1;
#X connect 3 0 5 1;
#X connect 3 0 4 1;
#X connect 4 0 8 0;
#X connect 5 0 8 1;
#X connect 6 0 9 0;
#X connect 7 0 6 1;
#X connect 8 0 7 0;
#X connect 10 0 5 0;
#X connect 10 0 4 0;
