#N canvas 416 96 864 571 10;
#X declare -path .;
#X declare -path ../pd;
#X declare -path ../../pd;
#X declare -path rj;
#X declare -path pd;
#X declare -path mrpeach;
#X declare -path ClaPD;
#N canvas 0 22 588 274 LICENSE 0;
#X text 79 84 (c) 2008 Reality Jockey;
#X text 57 36 Released under the GNU General Public License ver. 3
or later. See the file LICENSE.txt for the full text.;
#X restore 571 80 pd LICENSE;
#X obj 71 83 soundinput;
#X obj 571 108 OVERVIEW;
#X obj 571 24 declare -path .;
#X text 639 108 of all RjDj abstractions;
#N canvas 0 22 448 215 more_paths 0;
#X text 27 19 You can add more paths here as well \, like the path
to soundoutput.pd on your computer etc.;
#X obj 36 57 declare -path ../pd;
#X obj 35 79 declare -path ../../pd;
#X restore 707 52 pd more_paths;
#X text 194 99 Audio Input;
#X obj 547 266 u_samplebank;
#X text 195 507 Audio Output;
#X text 642 267 Loads samples in to memory;
#X obj 547 296 s_playtable;
#X text 642 297 Plays back tables/samples;
#X obj 73 457 soundoutput;
#X obj 571 52 declare -path rj;
#N canvas 742 23 538 487 infoRecevier 0;
#X obj 50 59 unpackOSC;
#X floatatom 335 283 5 0 0 0 - - -;
#X obj 50 102 routeOSC /shakelistenknow;
#X obj 338 303 hsl 128 15 0 10 0 0 empty empty empty -2 -8 0 10 -261682
-1 -1 0 1;
#X obj 335 324 * 40;
#X obj 50 33 udpreceive 23002;
#X obj 164 237 s wifi;
#X obj 221 237 s bluetooth;
#X obj 335 351 s pitch;
#X obj 107 318 s powerLevel;
#X obj 50 215 s shaking;
#X obj 107 265 routeOSC /level /charging;
#X obj 180 374 s charging;
#X floatatom 50 192 5 0 1 0 - - -;
#X floatatom 107 292 5 0 0 0 - - -;
#X floatatom 180 353 5 0 1 0 - - -;
#X floatatom 164 210 5 0 1 0 - - -;
#X floatatom 221 210 5 0 1 0 - - -;
#X floatatom 278 165 5 0 1 0 - - -;
#X obj 278 191 s gps;
#X obj 50 134 routeOSC /shaking /battery /wifi /bluetooth /gps;
#X text 344 263 Just for Testing;
#X connect 0 0 2 0;
#X connect 1 0 3 0;
#X connect 2 0 20 0;
#X connect 3 0 4 0;
#X connect 4 0 8 0;
#X connect 5 0 0 0;
#X connect 11 0 14 0;
#X connect 11 1 15 0;
#X connect 13 0 10 0;
#X connect 14 0 9 0;
#X connect 15 0 12 0;
#X connect 16 0 6 0;
#X connect 17 0 7 0;
#X connect 18 0 19 0;
#X connect 20 0 13 0;
#X connect 20 1 11 0;
#X connect 20 2 16 0;
#X connect 20 3 17 0;
#X connect 20 4 18 0;
#X connect 20 5 1 0;
#X restore 70 160 pd infoRecevier;
#X obj 72 256 r pitch;
#X obj 570 135 declare -path pd;
#X obj 72 280 osc~;
#X obj 570 161 declare -path mrpeach;
#X obj 570 187 declare -path ClaPD;
#N canvas 97 29 899 745 whistle 0;
#X obj 83 360 osc~;
#X obj 82 311 *~ 1e+06;
#X obj 84 417 *~;
#X obj 82 289 abs~;
#X obj 82 199 noise~;
#X obj 82 245 lop~ 0.15;
#X obj 82 267 lop~ 0.15;
#X obj 83 334 +~ 200;
#X obj 321 351 osc~;
#X obj 319 195 noise~;
#X obj 320 329 +~ 1000;
#X obj 320 307 *~ 1e+06;
#X obj 351 400 *~;
#X obj 320 285 abs~;
#X obj 320 241 lop~ 0.38;
#X obj 320 263 lop~ 0.38;
#X obj 252 307 delta~;
#X obj 252 351 clip~ 0 1;
#X obj 335 423 *~;
#X obj 252 329 *~ 1e+07;
#X obj 252 373 lop~ 5;
#X text 336 176 Whistler 2;
#X text 106 176 Whistler 1;
#X obj 129 358 hip~ 1500;
#X obj 147 597 outlet~ whistle;
#X obj 129 383 lop~ 5;
#X obj 367 377 lop~ 5;
#X obj 368 352 hip~ 2500;
#X obj 513 181 s whistleOn;
#X msg 513 148 1;
#X msg 558 148 0;
#X obj 162 27 bng 15 250 50 0 empty empty empty 17 7 0 10 -262144 -1
-1;
#X floatatom 512 34 5 0 0 0 - - -;
#X msg 86 48 1;
#X msg 162 100 0;
#X obj 162 128 s setzero;
#X obj 512 7 r setzero;
#X obj 163 457 r setzero;
#X obj 147 522 *~;
#X obj 335 518 *~;
#X obj 86 72 s setzero;
#X obj 162 -18 sel 1;
#X text 205 -18 turn on only if 1 received;
#X text 510 121 FOR TESTING;
#X text 509 -19 monitor one-zero step;
#X obj 162 -65 inlet;
#X obj 162 72 delay 2000;
#X obj 219 47 inlet;
#X text 231 70 default: turn off after 2000 msec;
#X obj 162 -41 change;
#X obj 84 442 *~ 0.4;
#X obj 335 445 *~ 0.4;
#X obj 162 4 delay 1000;
#X connect 0 0 2 0;
#X connect 1 0 7 0;
#X connect 2 0 50 0;
#X connect 3 0 1 0;
#X connect 4 0 5 0;
#X connect 5 0 6 0;
#X connect 6 0 3 0;
#X connect 7 0 0 0;
#X connect 7 0 23 0;
#X connect 8 0 12 0;
#X connect 9 0 14 0;
#X connect 10 0 8 0;
#X connect 10 0 27 0;
#X connect 11 0 10 0;
#X connect 12 0 18 1;
#X connect 13 0 11 0;
#X connect 13 0 16 0;
#X connect 14 0 15 0;
#X connect 15 0 13 0;
#X connect 16 0 19 0;
#X connect 17 0 20 0;
#X connect 18 0 51 0;
#X connect 19 0 17 0;
#X connect 20 0 18 0;
#X connect 23 0 25 0;
#X connect 25 0 2 1;
#X connect 26 0 12 1;
#X connect 27 0 26 0;
#X connect 29 0 28 0;
#X connect 30 0 28 0;
#X connect 31 0 33 0;
#X connect 31 0 46 0;
#X connect 33 0 40 0;
#X connect 34 0 35 0;
#X connect 36 0 32 0;
#X connect 37 0 38 1;
#X connect 37 0 39 1;
#X connect 38 0 24 0;
#X connect 39 0 24 0;
#X connect 41 0 52 0;
#X connect 45 0 49 0;
#X connect 46 0 34 0;
#X connect 47 0 46 1;
#X connect 49 0 41 0;
#X connect 50 0 38 0;
#X connect 51 0 39 0;
#X connect 52 0 31 0;
#X restore 149 280 pd whistle;
#N canvas 451 165 212 187 processPower 0;
#X obj 36 18 r powerLevel;
#X floatatom 36 50 5 0 100 0 - - -;
#X obj 36 124 s numberPeople;
#X obj 36 89 / 10;
#X connect 0 0 1 0;
#X connect 1 0 3 0;
#X connect 3 0 2 0;
#X restore 254 228 pd processPower;
#X obj 254 278 r~ clappers;
#X obj 149 227 r bluetooth;
#X msg 206 254 2000;
#N canvas 210 287 532 325 processGPS 0;
#X obj 61 230 readsf~ 2;
#X msg 61 141 open horn.wav;
#X obj 61 5 r gps;
#X obj 61 36 change;
#X obj 61 291 outlet~;
#X msg 162 169 1;
#X obj 61 71 sel 1;
#X obj 61 260 *~ 0.4;
#X obj 162 142 delay 3000;
#X connect 0 0 7 0;
#X connect 0 1 7 0;
#X connect 1 0 0 0;
#X connect 2 0 3 0;
#X connect 3 0 6 0;
#X connect 5 0 0 0;
#X connect 6 0 1 0;
#X connect 6 0 8 0;
#X connect 7 0 4 0;
#X connect 8 0 5 0;
#X restore 386 251 pd processGPS;
#N canvas 0 22 1280 752 02_Ensemble_GUI 0;
#X obj 15 195 bng 15 250 50 0 empty empty ON 0 -6 0 8 -262144 -1 -1
;
#X obj 102 195 bng 15 250 50 0 empty empty OFF 0 -6 0 8 -262144 -1
-1;
#X floatatom 16 455 1 0 1 2 syncronzation_ON/OFF - -;
#X obj 15 362 metro 440;
#X obj 84 399 bng 20 50 50 0 empty empty empty 0 -6 0 8 -262144 -1
-1;
#X obj 16 478 s sync;
#X obj 15 401 s ctrl;
#X obj 16 530 vsl 15 70 0 1 0 0 empty empty bad_syncronization 0 -8
0 10 -262144 -1 -1 0 1;
#X obj 53 569 s ord;
#X obj 236 69 bng 30 50 50 0 empty empty empty 0 -6 0 8 -262144 -1
-1;
#X obj 270 58 r ppl;
#X obj 268 79 s clap;
#X obj 236 37 ppl 1;
#X obj 321 69 bng 30 50 50 0 empty empty empty 0 -6 0 8 -262144 -1
-1;
#X obj 355 58 r ppl;
#X obj 353 79 s clap;
#X obj 406 69 bng 30 50 50 0 empty empty empty 0 -6 0 8 -262144 -1
-1;
#X obj 440 58 r ppl;
#X obj 438 79 s clap;
#X obj 491 69 bng 30 50 50 0 empty empty empty 0 -6 0 8 -262144 -1
-1;
#X obj 525 58 r ppl;
#X obj 523 79 s clap;
#X obj 576 69 bng 30 50 50 0 empty empty empty 0 -6 0 8 -262144 -1
-1;
#X obj 610 58 r ppl;
#X obj 608 79 s clap;
#X obj 662 69 bng 30 50 50 0 empty empty empty 0 -6 0 8 -262144 -1
-1;
#X obj 696 58 r ppl;
#X obj 694 79 s clap;
#X obj 747 69 bng 30 50 50 0 empty empty empty 0 -6 0 8 -262144 -1
-1;
#X obj 781 58 r ppl;
#X obj 779 79 s clap;
#X obj 832 69 bng 30 50 50 0 empty empty empty 0 -6 0 8 -262144 -1
-1;
#X obj 866 58 r ppl;
#X obj 864 79 s clap;
#X obj 917 69 bng 30 50 50 0 empty empty empty 0 -6 0 8 -262144 -1
-1;
#X obj 951 58 r ppl;
#X obj 949 79 s clap;
#X obj 1002 69 bng 30 50 50 0 empty empty empty 0 -6 0 8 -262144 -1
-1;
#X obj 1036 58 r ppl;
#X obj 1034 79 s clap;
#X obj 321 37 ppl 2;
#X obj 406 37 ppl 3;
#X obj 491 37 ppl 4;
#X obj 576 37 ppl 5;
#X obj 662 37 ppl 6;
#X obj 747 37 ppl 7;
#X obj 832 37 ppl 8;
#X obj 917 37 ppl 9;
#X obj 1002 37 ppl 10;
#X obj 185 162 bng 30 50 50 0 empty empty empty 0 -6 0 8 -262144 -1
-1;
#X obj 219 151 r ppl;
#X obj 217 172 s clap;
#X obj 270 162 bng 30 50 50 0 empty empty empty 0 -6 0 8 -262144 -1
-1;
#X obj 304 151 r ppl;
#X obj 302 172 s clap;
#X obj 355 162 bng 30 50 50 0 empty empty empty 0 -6 0 8 -262144 -1
-1;
#X obj 389 151 r ppl;
#X obj 387 172 s clap;
#X obj 440 162 bng 30 50 50 0 empty empty empty 0 -6 0 8 -262144 -1
-1;
#X obj 474 151 r ppl;
#X obj 472 172 s clap;
#X obj 525 162 bng 30 50 50 0 empty empty empty 0 -6 0 8 -262144 -1
-1;
#X obj 559 151 r ppl;
#X obj 557 172 s clap;
#X obj 610 162 bng 30 50 50 0 empty empty empty 0 -6 0 8 -262144 -1
-1;
#X obj 644 151 r ppl;
#X obj 642 172 s clap;
#X obj 695 162 bng 30 50 50 0 empty empty empty 0 -6 0 8 -262144 -1
-1;
#X obj 729 151 r ppl;
#X obj 727 172 s clap;
#X obj 780 162 bng 30 50 50 0 empty empty empty 0 -6 0 8 -262144 -1
-1;
#X obj 814 151 r ppl;
#X obj 812 172 s clap;
#X obj 865 162 bng 30 50 50 0 empty empty empty 0 -6 0 8 -262144 -1
-1;
#X obj 899 151 r ppl;
#X obj 897 172 s clap;
#X obj 950 162 bng 30 50 50 0 empty empty empty 0 -6 0 8 -262144 -1
-1;
#X obj 984 151 r ppl;
#X obj 982 172 s clap;
#X obj 236 255 bng 30 50 50 0 empty empty empty 0 -6 0 8 -262144 -1
-1;
#X obj 270 244 r ppl;
#X obj 268 265 s clap;
#X obj 321 255 bng 30 50 50 0 empty empty empty 0 -6 0 8 -262144 -1
-1;
#X obj 355 244 r ppl;
#X obj 353 265 s clap;
#X obj 406 255 bng 30 50 50 0 empty empty empty 0 -6 0 8 -262144 -1
-1;
#X obj 440 244 r ppl;
#X obj 438 265 s clap;
#X obj 491 255 bng 30 50 50 0 empty empty empty 0 -6 0 8 -262144 -1
-1;
#X obj 525 244 r ppl;
#X obj 523 265 s clap;
#X obj 576 255 bng 30 50 50 0 empty empty empty 0 -6 0 8 -262144 -1
-1;
#X obj 610 244 r ppl;
#X obj 608 265 s clap;
#X obj 661 255 bng 30 50 50 0 empty empty empty 0 -6 0 8 -262144 -1
-1;
#X obj 695 244 r ppl;
#X obj 693 265 s clap;
#X obj 746 255 bng 30 50 50 0 empty empty empty 0 -6 0 8 -262144 -1
-1;
#X obj 780 244 r ppl;
#X obj 778 265 s clap;
#X obj 831 255 bng 30 50 50 0 empty empty empty 0 -6 0 8 -262144 -1
-1;
#X obj 865 244 r ppl;
#X obj 863 265 s clap;
#X obj 916 255 bng 30 50 50 0 empty empty empty 0 -6 0 8 -262144 -1
-1;
#X obj 950 244 r ppl;
#X obj 948 265 s clap;
#X obj 1001 255 bng 30 50 50 0 empty empty empty 0 -6 0 8 -262144 -1
-1;
#X obj 1035 244 r ppl;
#X obj 1033 265 s clap;
#X obj 185 348 bng 30 50 50 0 empty empty empty 0 -6 0 8 -262144 -1
-1;
#X obj 219 337 r ppl;
#X obj 217 358 s clap;
#X obj 270 348 bng 30 50 50 0 empty empty empty 0 -6 0 8 -262144 -1
-1;
#X obj 304 337 r ppl;
#X obj 302 358 s clap;
#X obj 355 348 bng 30 50 50 0 empty empty empty 0 -6 0 8 -262144 -1
-1;
#X obj 389 337 r ppl;
#X obj 387 358 s clap;
#X obj 440 348 bng 30 50 50 0 empty empty empty 0 -6 0 8 -262144 -1
-1;
#X obj 474 337 r ppl;
#X obj 472 358 s clap;
#X obj 525 348 bng 30 50 50 0 empty empty empty 0 -6 0 8 -262144 -1
-1;
#X obj 559 337 r ppl;
#X obj 557 358 s clap;
#X obj 610 348 bng 30 50 50 0 empty empty empty 0 -6 0 8 -262144 -1
-1;
#X obj 644 337 r ppl;
#X obj 642 358 s clap;
#X obj 695 348 bng 30 50 50 0 empty empty empty 0 -6 0 8 -262144 -1
-1;
#X obj 729 337 r ppl;
#X obj 727 358 s clap;
#X obj 780 348 bng 30 50 50 0 empty empty empty 0 -6 0 8 -262144 -1
-1;
#X obj 814 337 r ppl;
#X obj 812 358 s clap;
#X obj 865 348 bng 30 50 50 0 empty empty empty 0 -6 0 8 -262144 -1
-1;
#X obj 899 337 r ppl;
#X obj 897 358 s clap;
#X obj 950 348 bng 30 50 50 0 empty empty empty 0 -6 0 8 -262144 -1
-1;
#X obj 984 337 r ppl;
#X obj 982 358 s clap;
#X obj 236 442 bng 30 50 50 0 empty empty empty 0 -6 0 8 -262144 -1
-1;
#X obj 270 431 r ppl;
#X obj 268 452 s clap;
#X obj 321 442 bng 30 50 50 0 empty empty empty 0 -6 0 8 -262144 -1
-1;
#X obj 355 431 r ppl;
#X obj 353 452 s clap;
#X obj 406 442 bng 30 50 50 0 empty empty empty 0 -6 0 8 -262144 -1
-1;
#X obj 440 431 r ppl;
#X obj 438 452 s clap;
#X obj 491 442 bng 30 50 50 0 empty empty empty 0 -6 0 8 -262144 -1
-1;
#X obj 525 431 r ppl;
#X obj 523 452 s clap;
#X obj 576 442 bng 30 50 50 0 empty empty empty 0 -6 0 8 -262144 -1
-1;
#X obj 609 432 r ppl;
#X obj 608 452 s clap;
#X obj 661 442 bng 30 50 50 0 empty empty empty 0 -6 0 8 -262144 -1
-1;
#X obj 695 431 r ppl;
#X obj 693 452 s clap;
#X obj 746 442 bng 30 50 50 0 empty empty empty 0 -6 0 8 -262144 -1
-1;
#X obj 780 431 r ppl;
#X obj 778 452 s clap;
#X obj 831 442 bng 30 50 50 0 empty empty empty 0 -6 0 8 -262144 -1
-1;
#X obj 865 431 r ppl;
#X obj 863 452 s clap;
#X obj 916 442 bng 30 50 50 0 empty empty empty 0 -6 0 8 -262144 -1
-1;
#X obj 950 431 r ppl;
#X obj 948 452 s clap;
#X obj 1001 442 bng 30 50 50 0 empty empty empty 0 -6 0 8 -262144 -1
-1;
#X obj 1035 431 r ppl;
#X obj 1033 452 s clap;
#X obj 185 535 bng 30 50 50 0 empty empty empty 0 -6 0 8 -262144 -1
-1;
#X obj 219 524 r ppl;
#X obj 217 545 s clap;
#X obj 270 535 bng 30 50 50 0 empty empty empty 0 -6 0 8 -262144 -1
-1;
#X obj 304 524 r ppl;
#X obj 302 545 s clap;
#X obj 355 535 bng 30 50 50 0 empty empty empty 0 -6 0 8 -262144 -1
-1;
#X obj 389 524 r ppl;
#X obj 387 545 s clap;
#X obj 440 535 bng 30 50 50 0 empty empty empty 0 -6 0 8 -262144 -1
-1;
#X obj 474 524 r ppl;
#X obj 472 545 s clap;
#X obj 525 535 bng 30 50 50 0 empty empty empty 0 -6 0 8 -262144 -1
-1;
#X obj 559 524 r ppl;
#X obj 557 545 s clap;
#X obj 610 535 bng 30 50 50 0 empty empty empty 0 -6 0 8 -262144 -1
-1;
#X obj 644 524 r ppl;
#X obj 642 545 s clap;
#X obj 695 535 bng 30 50 50 0 empty empty empty 0 -6 0 8 -262144 -1
-1;
#X obj 729 524 r ppl;
#X obj 727 545 s clap;
#X obj 780 535 bng 30 50 50 0 empty empty empty 0 -6 0 8 -262144 -1
-1;
#X obj 814 524 r ppl;
#X obj 812 545 s clap;
#X obj 865 535 bng 30 50 50 0 empty empty empty 0 -6 0 8 -262144 -1
-1;
#X obj 899 524 r ppl;
#X obj 897 545 s clap;
#X obj 950 535 bng 30 50 50 0 empty empty empty 0 -6 0 8 -262144 -1
-1;
#X obj 984 524 r ppl;
#X obj 982 545 s clap;
#X obj 185 131 ppl 11;
#X obj 270 130 ppl 12;
#X obj 355 130 ppl 13;
#X obj 440 130 ppl 14;
#X obj 524 130 ppl 15;
#X obj 610 130 ppl 16;
#X obj 695 130 ppl 17;
#X obj 780 130 ppl 18;
#X obj 865 130 ppl 19;
#X obj 950 130 ppl 20;
#X obj 1001 223 ppl 30;
#X obj 915 223 ppl 29;
#X obj 831 223 ppl 28;
#X obj 746 223 ppl 27;
#X obj 661 223 ppl 26;
#X obj 576 223 ppl 25;
#X obj 491 223 ppl 24;
#X obj 406 223 ppl 23;
#X obj 321 223 ppl 22;
#X obj 236 223 ppl 21;
#X obj 185 316 ppl 31;
#X obj 270 316 ppl 32;
#X obj 355 316 ppl 33;
#X obj 440 316 ppl 34;
#X obj 525 316 ppl 35;
#X obj 610 316 ppl 36;
#X obj 695 316 ppl 37;
#X obj 780 316 ppl 38;
#X obj 866 316 ppl 39;
#X obj 950 316 ppl 40;
#X obj 236 410 ppl 41;
#X obj 321 410 ppl 42;
#X obj 406 410 ppl 43;
#X obj 491 410 ppl 44;
#X obj 576 411 ppl 45;
#X obj 661 410 ppl 46;
#X obj 746 410 ppl 47;
#X obj 831 410 ppl 48;
#X obj 916 410 ppl 49;
#X obj 1001 410 ppl 50;
#X obj 185 503 ppl 51;
#X obj 270 503 ppl 52;
#X obj 355 503 ppl 53;
#X obj 440 503 ppl 54;
#X obj 525 503 ppl 55;
#X obj 610 503 ppl 56;
#X obj 695 503 ppl 57;
#X obj 780 503 ppl 58;
#X obj 865 503 ppl 59;
#X obj 950 503 ppl 60;
#X msg 102 316 \; rev 1;
#X obj 102 294 pipe 4000;
#X obj 270 482 clapper;
#X obj 185 482 clapper;
#X obj 236 16 clapper;
#X obj 321 16 clapper;
#X obj 406 16 clapper;
#X obj 491 16 clapper;
#X obj 576 16 clapper;
#X obj 662 16 clapper;
#X obj 747 16 clapper;
#X obj 832 16 clapper;
#X obj 917 16 clapper;
#X obj 1002 16 clapper;
#X obj 185 109 clapper;
#X obj 270 109 clapper;
#X obj 355 109 clapper;
#X obj 440 109 clapper;
#X obj 525 109 clapper;
#X obj 610 109 clapper;
#X obj 695 109 clapper;
#X obj 780 109 clapper;
#X obj 865 109 clapper;
#X obj 950 109 clapper;
#X obj 236 202 clapper;
#X obj 321 202 clapper;
#X obj 406 202 clapper;
#X obj 491 202 clapper;
#X obj 576 202 clapper;
#X obj 661 202 clapper;
#X obj 746 202 clapper;
#X obj 831 202 clapper;
#X obj 916 202 clapper;
#X obj 1001 202 clapper;
#X obj 185 295 clapper;
#X obj 270 295 clapper;
#X obj 355 295 clapper;
#X obj 440 295 clapper;
#X obj 525 295 clapper;
#X obj 610 295 clapper;
#X obj 695 295 clapper;
#X obj 780 295 clapper;
#X obj 865 295 clapper;
#X obj 950 295 clapper;
#X obj 236 389 clapper;
#X obj 321 389 clapper;
#X obj 406 389 clapper;
#X obj 491 385 clapper;
#X obj 576 390 clapper;
#X obj 661 389 clapper;
#X obj 746 389 clapper;
#X obj 831 389 clapper;
#X obj 916 389 clapper;
#X obj 1001 389 clapper;
#X obj 355 482 clapper;
#X obj 440 482 clapper;
#X obj 525 482 clapper;
#X obj 610 482 clapper;
#X obj 695 482 clapper;
#X obj 780 482 clapper;
#X obj 865 482 clapper;
#X obj 950 482 clapper;
#X msg 102 209 sc 3500 \; ba bang \; onoff 0;
#X msg 15 209 1 \; sc 1000 \; ba bang \; onoff 1 \; rev 0;
#X obj 27 55 expr $f1 \; if($f1 == 0 \, 1 \, 0) \;;
#X obj 15 114 sel 1;
#X obj 191 234 pipe;
#X obj 102 113 sel 1;
#X obj 534 648 oneclap;
#X obj 677 777 freeverb~;
#X floatatom 874 653 5 0 1 0 - - -;
#X obj 874 672 min 1;
#X msg 874 695 roomsize \$1;
#X floatatom 766 652 5 0 0 0 - - -;
#X obj 766 672 / 100;
#X msg 766 694 damping \$1;
#X floatatom 677 652 5 0 0 0 - - -;
#X obj 677 672 / 100;
#X msg 677 695 width \$1;
#X floatatom 935 738 5 0 0 0 - - -;
#X msg 935 757 wet \$1;
#X floatatom 1012 738 5 0 0 0 - - -;
#X msg 1012 715 0.22;
#X obj 1012 692 loadbang;
#X obj 995 828 tgl 15 0 empty empty empty 0 -6 0 8 -262144 -1 -1 0
1;
#X msg 995 844 freeze \$1;
#X obj 895 827 tgl 15 0 empty empty empty 0 -6 0 8 -262144 -1 -1 0
1;
#X msg 895 843 bypass \$1;
#X msg 791 845 print;
#X msg 1012 757 dry \$1;
#X msg 427 713 bang;
#X msg 534 732 start;
#X msg 537 759 stop;
#X obj 499 796 writesf~ 1;
#X floatatom 76 681 5 0 60 2 no._of_people - -;
#X obj 17 698 s ppl;
#X obj 17 640 loadbang;
#X msg 17 661 5;
#X text 14 600 good_syncronization;
#X obj 534 581 r clap;
#X obj 895 788 r rev;
#X text 745 629 Reverberation;
#X obj 427 740 del 10000;
#X obj 370 764 del 8000;
#X obj 370 804 bng 15 250 50 0 empty empty empty 0 -6 0 8 -262144 -1
-1;
#X msg 375 691 open test1.wav;
#X text 373 673 Write to file;
#X text 14 823 ----------------------------------------;
#X text 14 873 ----------------------------------------;
#X text 13 835 ClaPD $Revision: 1.2 $;
#X text 13 850 L. Peltola and C. Erkut;
#X text 13 864 TKK \, Acoustics LAB.;
#X obj 94 638 r numberPeople;
#X obj 682 818 output~;
#X obj 15 0 r shaking;
#X obj 573 605 r charging;
#X connect 0 0 312 0;
#X connect 1 0 311 0;
#X connect 2 0 5 0;
#X connect 3 0 4 0;
#X connect 3 0 6 0;
#X connect 7 0 8 0;
#X connect 9 0 11 0;
#X connect 10 0 12 1;
#X connect 12 0 9 0;
#X connect 13 0 15 0;
#X connect 14 0 40 1;
#X connect 16 0 18 0;
#X connect 17 0 41 1;
#X connect 19 0 21 0;
#X connect 20 0 42 1;
#X connect 22 0 24 0;
#X connect 23 0 43 1;
#X connect 25 0 27 0;
#X connect 26 0 44 1;
#X connect 28 0 30 0;
#X connect 29 0 45 1;
#X connect 31 0 33 0;
#X connect 32 0 46 1;
#X connect 34 0 36 0;
#X connect 35 0 47 1;
#X connect 37 0 39 0;
#X connect 38 0 48 1;
#X connect 40 0 13 0;
#X connect 41 0 16 0;
#X connect 42 0 19 0;
#X connect 43 0 22 0;
#X connect 44 0 25 0;
#X connect 45 0 28 0;
#X connect 46 0 31 0;
#X connect 47 0 34 0;
#X connect 48 0 37 0;
#X connect 49 0 51 0;
#X connect 50 0 199 1;
#X connect 52 0 54 0;
#X connect 53 0 200 1;
#X connect 55 0 57 0;
#X connect 56 0 201 1;
#X connect 58 0 60 0;
#X connect 59 0 202 1;
#X connect 61 0 63 0;
#X connect 62 0 203 1;
#X connect 64 0 66 0;
#X connect 65 0 204 1;
#X connect 67 0 69 0;
#X connect 68 0 205 1;
#X connect 70 0 72 0;
#X connect 71 0 206 1;
#X connect 73 0 75 0;
#X connect 74 0 207 1;
#X connect 76 0 78 0;
#X connect 77 0 208 1;
#X connect 79 0 81 0;
#X connect 80 0 218 1;
#X connect 82 0 84 0;
#X connect 83 0 217 1;
#X connect 85 0 87 0;
#X connect 86 0 216 1;
#X connect 88 0 90 0;
#X connect 89 0 215 1;
#X connect 91 0 93 0;
#X connect 92 0 214 1;
#X connect 94 0 96 0;
#X connect 95 0 213 1;
#X connect 97 0 99 0;
#X connect 98 0 212 1;
#X connect 100 0 102 0;
#X connect 101 0 211 1;
#X connect 103 0 105 0;
#X connect 104 0 210 1;
#X connect 106 0 108 0;
#X connect 107 0 209 1;
#X connect 109 0 111 0;
#X connect 110 0 219 1;
#X connect 112 0 114 0;
#X connect 113 0 220 1;
#X connect 115 0 117 0;
#X connect 116 0 221 1;
#X connect 118 0 120 0;
#X connect 119 0 222 1;
#X connect 121 0 123 0;
#X connect 122 0 223 1;
#X connect 124 0 126 0;
#X connect 125 0 224 1;
#X connect 127 0 129 0;
#X connect 128 0 225 1;
#X connect 130 0 132 0;
#X connect 131 0 226 1;
#X connect 133 0 135 0;
#X connect 134 0 227 1;
#X connect 136 0 138 0;
#X connect 137 0 228 1;
#X connect 139 0 141 0;
#X connect 140 0 229 1;
#X connect 142 0 144 0;
#X connect 143 0 230 1;
#X connect 145 0 147 0;
#X connect 146 0 231 1;
#X connect 148 0 150 0;
#X connect 149 0 232 1;
#X connect 151 0 153 0;
#X connect 152 0 233 1;
#X connect 154 0 156 0;
#X connect 155 0 234 1;
#X connect 157 0 159 0;
#X connect 158 0 235 1;
#X connect 160 0 162 0;
#X connect 161 0 236 1;
#X connect 163 0 165 0;
#X connect 164 0 237 1;
#X connect 166 0 168 0;
#X connect 167 0 238 1;
#X connect 169 0 171 0;
#X connect 170 0 239 1;
#X connect 172 0 174 0;
#X connect 173 0 240 1;
#X connect 175 0 177 0;
#X connect 176 0 241 1;
#X connect 178 0 180 0;
#X connect 179 0 242 1;
#X connect 181 0 183 0;
#X connect 182 0 243 1;
#X connect 184 0 186 0;
#X connect 185 0 244 1;
#X connect 187 0 189 0;
#X connect 188 0 245 1;
#X connect 190 0 192 0;
#X connect 191 0 246 1;
#X connect 193 0 195 0;
#X connect 194 0 247 1;
#X connect 196 0 198 0;
#X connect 197 0 248 1;
#X connect 199 0 49 0;
#X connect 200 0 52 0;
#X connect 201 0 55 0;
#X connect 202 0 58 0;
#X connect 203 0 61 0;
#X connect 204 0 64 0;
#X connect 205 0 67 0;
#X connect 206 0 70 0;
#X connect 207 0 73 0;
#X connect 208 0 76 0;
#X connect 209 0 106 0;
#X connect 210 0 103 0;
#X connect 211 0 100 0;
#X connect 212 0 97 0;
#X connect 213 0 94 0;
#X connect 214 0 91 0;
#X connect 215 0 88 0;
#X connect 216 0 85 0;
#X connect 217 0 82 0;
#X connect 218 0 79 0;
#X connect 219 0 109 0;
#X connect 220 0 112 0;
#X connect 221 0 115 0;
#X connect 222 0 118 0;
#X connect 223 0 121 0;
#X connect 224 0 124 0;
#X connect 225 0 127 0;
#X connect 226 0 130 0;
#X connect 227 0 133 0;
#X connect 228 0 136 0;
#X connect 229 0 139 0;
#X connect 230 0 142 0;
#X connect 231 0 145 0;
#X connect 232 0 148 0;
#X connect 233 0 151 0;
#X connect 234 0 154 0;
#X connect 235 0 157 0;
#X connect 236 0 160 0;
#X connect 237 0 163 0;
#X connect 238 0 166 0;
#X connect 239 0 169 0;
#X connect 240 0 172 0;
#X connect 241 0 175 0;
#X connect 242 0 178 0;
#X connect 243 0 181 0;
#X connect 244 0 184 0;
#X connect 245 0 187 0;
#X connect 246 0 190 0;
#X connect 247 0 193 0;
#X connect 248 0 196 0;
#X connect 250 0 249 0;
#X connect 251 0 240 0;
#X connect 252 0 239 0;
#X connect 253 0 12 0;
#X connect 254 0 40 0;
#X connect 255 0 41 0;
#X connect 256 0 42 0;
#X connect 257 0 43 0;
#X connect 258 0 44 0;
#X connect 259 0 45 0;
#X connect 260 0 46 0;
#X connect 261 0 47 0;
#X connect 262 0 48 0;
#X connect 263 0 199 0;
#X connect 264 0 200 0;
#X connect 265 0 201 0;
#X connect 266 0 202 0;
#X connect 267 0 203 0;
#X connect 268 0 204 0;
#X connect 269 0 205 0;
#X connect 270 0 206 0;
#X connect 271 0 207 0;
#X connect 272 0 208 0;
#X connect 273 0 218 0;
#X connect 274 0 217 0;
#X connect 275 0 216 0;
#X connect 276 0 215 0;
#X connect 277 0 214 0;
#X connect 278 0 213 0;
#X connect 279 0 212 0;
#X connect 280 0 211 0;
#X connect 281 0 210 0;
#X connect 282 0 209 0;
#X connect 283 0 219 0;
#X connect 284 0 220 0;
#X connect 285 0 221 0;
#X connect 286 0 222 0;
#X connect 287 0 223 0;
#X connect 288 0 224 0;
#X connect 289 0 225 0;
#X connect 290 0 226 0;
#X connect 291 0 227 0;
#X connect 292 0 228 0;
#X connect 293 0 229 0;
#X connect 294 0 230 0;
#X connect 295 0 231 0;
#X connect 296 0 232 0;
#X connect 297 0 233 0;
#X connect 298 0 234 0;
#X connect 299 0 235 0;
#X connect 300 0 236 0;
#X connect 301 0 237 0;
#X connect 302 0 238 0;
#X connect 303 0 241 0;
#X connect 304 0 242 0;
#X connect 305 0 243 0;
#X connect 306 0 244 0;
#X connect 307 0 245 0;
#X connect 308 0 246 0;
#X connect 309 0 247 0;
#X connect 310 0 248 0;
#X connect 311 0 3 0;
#X connect 311 0 250 0;
#X connect 312 0 3 0;
#X connect 313 1 316 0;
#X connect 314 0 0 0;
#X connect 316 0 1 0;
#X connect 317 0 318 0;
#X connect 317 0 318 1;
#X connect 318 0 342 0;
#X connect 318 0 362 0;
#X connect 318 1 362 1;
#X connect 319 0 320 0;
#X connect 320 0 321 0;
#X connect 321 0 318 0;
#X connect 322 0 323 0;
#X connect 323 0 324 0;
#X connect 324 0 318 0;
#X connect 325 0 326 0;
#X connect 326 0 327 0;
#X connect 327 0 318 0;
#X connect 328 0 329 0;
#X connect 329 0 318 0;
#X connect 330 0 338 0;
#X connect 331 0 330 0;
#X connect 332 0 331 0;
#X connect 333 0 334 0;
#X connect 334 0 318 0;
#X connect 335 0 336 0;
#X connect 336 0 318 0;
#X connect 337 0 318 0;
#X connect 338 0 318 0;
#X connect 339 0 340 0;
#X connect 339 0 351 0;
#X connect 339 0 352 0;
#X connect 340 0 342 0;
#X connect 341 0 342 0;
#X connect 343 0 344 0;
#X connect 345 0 346 0;
#X connect 346 0 343 0;
#X connect 348 0 317 0;
#X connect 349 0 335 0;
#X connect 349 0 333 0;
#X connect 351 0 341 0;
#X connect 352 0 353 0;
#X connect 354 0 342 0;
#X connect 361 0 343 0;
#X connect 363 0 314 0;
#X connect 363 0 313 0;
#X connect 364 0 317 1;
#X restore 254 253 pd 02_Ensemble_GUI;
#X text 75 332 comment;
#X text 17 257 Just for Testing;
#X text 53 7 Shake Listen Know Patch Authors: Helene Oberhumer and
Jose Granjo;
#X text 168 161 Phone's information input;
#X text 149 205 Bluetooth;
#X text 276 204 Battery;
#X text 419 227 GPS;
#X connect 15 0 17 0;
#X connect 17 0 12 0;
#X connect 17 0 12 1;
#X connect 20 0 12 0;
#X connect 20 0 12 1;
#X connect 22 0 12 0;
#X connect 22 0 12 1;
#X connect 23 0 20 0;
#X connect 24 0 20 1;
#X connect 25 0 12 0;
#X connect 25 0 12 1;
