#N canvas 0 22 949 646 10;
#X declare -path .;
#X declare -path ../pd;
#X declare -path ../../pd;
#X declare -path rj;
#X declare -path pd;
#X declare -path mrpeach;
#X declare -path ClaPD;
#N canvas 0 22 588 274 LICENSE 0;
#X text 79 84 (c) 2008 Reality Jockey;
#X text 57 36 Released under the GNU General Public License ver. 3
or later. See the file LICENSE.txt for the full text.;
#X restore 571 80 pd LICENSE;
#X obj 71 83 soundinput;
#X obj 571 108 OVERVIEW;
#X text 27 23 RjDj Scene Template - _main.pd;
#X obj 571 24 declare -path .;
#X text 639 108 of all RjDj abstractions;
#N canvas 0 22 448 215 more_paths 0;
#X text 27 19 You can add more paths here as well \, like the path
to soundoutput.pd on your computer etc.;
#X obj 36 57 declare -path ../pd;
#X obj 35 79 declare -path ../../pd;
#X restore 707 52 pd more_paths;
#X text 194 99 Audio Input;
#X text 195 507 Audio Output;
#X text 642 267 Loads samples in to memory;
#X obj 547 296 s_playtable;
#X text 642 297 Plays back tables/samples;
#X obj 73 457 soundoutput;
#X obj 571 52 declare -path rj;
#N canvas 466 22 546 425 infoRecevier 0;
#X obj 50 59 unpackOSC;
#X obj 239 219 print;
#X floatatom 366 255 5 0 0 0 - - -;
#X obj 50 102 routeOSC /shakelistenknow;
#X obj 369 286 hsl 128 15 0 10 0 0 empty empty empty -2 -8 0 10 -261682
-1 -1 0 1;
#X obj 366 330 * 40;
#X obj 113 218 print;
#X obj 176 218 print;
#X obj 365 167 print;
#X obj 50 33 udpreceive 23002;
#X obj 50 134 routeOSC /accelerometer /power /wifi /bluetooth /test
;
#X obj 48 246 s accelerometer;
#X obj 50 268 print;
#X obj 176 195 s wifi;
#X obj 239 196 s bluetooth;
#X obj 302 167 print;
#X obj 366 363 s pitch;
#X obj 290 393 print;
#X obj 113 195 s powerLevel;
#X connect 0 0 3 0;
#X connect 2 0 4 0;
#X connect 3 0 10 0;
#X connect 4 0 5 0;
#X connect 5 0 16 0;
#X connect 5 0 17 0;
#X connect 9 0 0 0;
#X connect 10 0 12 0;
#X connect 10 1 6 0;
#X connect 10 1 18 0;
#X connect 10 2 7 0;
#X connect 10 2 13 0;
#X connect 10 3 1 0;
#X connect 10 3 14 0;
#X connect 10 4 15 0;
#X connect 10 4 2 0;
#X connect 10 5 8 0;
#X restore 341 83 pd infoRecevier;
#X obj 72 256 r pitch;
#X text 75 332 comment;
#X obj 570 135 declare -path pd;
#X obj 72 292 osc~;
#X obj 570 161 declare -path mrpeach;
#X obj 570 187 declare -path ClaPD;
#N canvas 376 22 1132 752 whistle 1;
#X obj 80 346 osc~;
#X obj 79 297 *~ 1e+06;
#X obj 81 403 *~;
#X obj 79 275 abs~;
#X obj 79 185 noise~;
#X obj 79 231 lop~ 0.15;
#X obj 79 253 lop~ 0.15;
#X obj 80 320 +~ 200;
#X obj 81 427 *~ 0.2;
#X obj 318 337 osc~;
#X obj 316 181 noise~;
#X obj 317 315 +~ 1000;
#X obj 317 293 *~ 1e+06;
#X obj 348 386 *~;
#X obj 317 271 abs~;
#X obj 317 227 lop~ 0.38;
#X obj 317 249 lop~ 0.38;
#X obj 249 293 delta~;
#X obj 249 337 clip~ 0 1;
#X obj 332 409 *~;
#X obj 249 315 *~ 1e+07;
#X obj 249 359 lop~ 5;
#X obj 332 431 *~ 0.2;
#X text 333 162 Whistler 2;
#X text 103 162 Whistler 1;
#X obj 126 344 hip~ 1500;
#X obj 185 584 outlet~ whistle;
#X obj 126 369 lop~ 5;
#X obj 364 363 lop~ 5;
#X obj 365 338 hip~ 2500;
#X obj 510 125 s whistleOn;
#X msg 509 92 1;
#X msg 554 92 0;
#X obj 201 -2 bng 15 250 50 0 empty empty empty 17 7 0 10 -262144 -1
-1;
#X floatatom 509 32 5 0 0 0 - - -;
#X msg 144 26 1;
#X msg 201 86 0;
#X obj 201 119 s setzero;
#X obj 509 -7 r setzero;
#X obj 199 448 r setzero;
#X obj 144 508 *~;
#X obj 272 512 *~;
#X obj 112 59 s setzero;
#X obj 200 -44 sel 1;
#X text 270 -43 turn on only if 1 received;
#X text 506 65 FOR TESTING;
#X text 506 -33 monitor one-zero step;
#X obj 230 -81 inlet;
#X obj 201 54 delay 2000;
#X obj 263 15 inlet;
#X text 286 55 default: turn off after 2000 msec;
#X connect 0 0 2 0;
#X connect 1 0 7 0;
#X connect 2 0 8 0;
#X connect 3 0 1 0;
#X connect 4 0 5 0;
#X connect 5 0 6 0;
#X connect 6 0 3 0;
#X connect 7 0 0 0;
#X connect 7 0 25 0;
#X connect 8 0 40 0;
#X connect 9 0 13 0;
#X connect 10 0 15 0;
#X connect 11 0 9 0;
#X connect 11 0 29 0;
#X connect 12 0 11 0;
#X connect 13 0 19 1;
#X connect 14 0 12 0;
#X connect 14 0 17 0;
#X connect 15 0 16 0;
#X connect 16 0 14 0;
#X connect 17 0 20 0;
#X connect 18 0 21 0;
#X connect 19 0 22 0;
#X connect 20 0 18 0;
#X connect 21 0 19 0;
#X connect 22 0 41 0;
#X connect 25 0 27 0;
#X connect 27 0 2 1;
#X connect 28 0 13 1;
#X connect 29 0 28 0;
#X connect 31 0 30 0;
#X connect 32 0 30 0;
#X connect 33 0 35 0;
#X connect 33 0 48 0;
#X connect 35 0 42 0;
#X connect 36 0 37 0;
#X connect 38 0 34 0;
#X connect 39 0 40 1;
#X connect 39 0 41 1;
#X connect 40 0 26 0;
#X connect 41 0 26 0;
#X connect 43 0 33 0;
#X connect 47 0 43 0;
#X connect 48 0 36 0;
#X connect 49 0 48 1;
#X restore 260 364 pd whistle;
#N canvas 812 22 450 300 processPower 0;
#X obj 67 21 r powerLevel;
#X floatatom 67 53 5 0 0 0 - - -;
#X connect 0 0 1 0;
#X restore 354 167 pd processPower;
#X obj 547 266 u_samplebank;
#X msg 308 276 0;
#X msg 264 276 1;
#X floatatom 355 320 5 500 5000 0 duration - -;
#X connect 15 0 18 0;
#X connect 18 0 12 0;
#X connect 18 0 12 1;
#X connect 21 0 12 0;
#X connect 21 0 12 1;
#X connect 24 0 21 0;
#X connect 25 0 21 0;
#X connect 26 0 21 1;
